<mxfile host="app.diagrams.net" modified="2022-11-25T09:31:09.154Z" agent="5.0 (Macintosh; Intel Mac OS X 10_15_7) AppleWebKit/537.36 (KHTML, like Gecko) Chrome/107.0.0.0 Safari/537.36" etag="Fmnb56fYPcYLLP36gdwy" version="20.5.3" type="github">
  <diagram id="_bfTou2k6QVlwUtsVBX7" name="第 1 页">
    <mxGraphModel dx="1098" dy="540" grid="1" gridSize="10" guides="1" tooltips="1" connect="1" arrows="1" fold="1" page="1" pageScale="1" pageWidth="827" pageHeight="1169" math="0" shadow="0">
      <root>
        <mxCell id="0" />
        <mxCell id="1" parent="0" />
        <mxCell id="2gdlmnFrw7Doysd-Zsr7-1" value="&lt;p style=&quot;margin: 0px; font-variant-numeric: normal; font-variant-east-asian: normal; font-stretch: normal; font-size: 10px; line-height: normal; font-family: &amp;quot;PingFang SC&amp;quot;; text-align: start;&quot; class=&quot;p1&quot;&gt;&amp;nbsp; &amp;nbsp; Register&amp;nbsp; &amp;nbsp; &amp;nbsp; &amp;nbsp; window&lt;/p&gt;" style="shape=umlBoundary;whiteSpace=wrap;html=1;" parent="1" vertex="1">
          <mxGeometry x="270" y="200" width="100" height="80" as="geometry" />
        </mxCell>
        <mxCell id="2gdlmnFrw7Doysd-Zsr7-2" value="&lt;p style=&quot;margin: 0px; font-variant-numeric: normal; font-variant-east-asian: normal; font-stretch: normal; font-size: 10px; line-height: normal; font-family: &amp;quot;PingFang SC&amp;quot;; text-align: start;&quot; class=&quot;p1&quot;&gt;Account&lt;/p&gt;" style="ellipse;shape=umlEntity;whiteSpace=wrap;html=1;" parent="1" vertex="1">
          <mxGeometry x="697" y="200" width="80" height="80" as="geometry" />
        </mxCell>
        <mxCell id="2gdlmnFrw7Doysd-Zsr7-3" value="&lt;p style=&quot;margin: 0px; font-variant-numeric: normal; font-variant-east-asian: normal; font-stretch: normal; font-size: 11px; line-height: normal; font-family: &amp;quot;Times New Roman&amp;quot;; text-align: start;&quot; class=&quot;p1&quot;&gt;&amp;nbsp; &amp;nbsp; &amp;nbsp; Verify&amp;nbsp; &amp;nbsp; &amp;nbsp; &amp;nbsp; &amp;nbsp;information&lt;/p&gt;" style="ellipse;shape=umlControl;whiteSpace=wrap;html=1;" parent="1" vertex="1">
          <mxGeometry x="500" y="200" width="70" height="80" as="geometry" />
        </mxCell>
        <mxCell id="2gdlmnFrw7Doysd-Zsr7-6" value="Actor" style="shape=umlActor;verticalLabelPosition=bottom;verticalAlign=top;html=1;" parent="1" vertex="1">
          <mxGeometry x="110" y="210" width="30" height="60" as="geometry" />
        </mxCell>
        <mxCell id="2gdlmnFrw7Doysd-Zsr7-11" value="" style="endArrow=none;html=1;rounded=0;entryX=-0.03;entryY=0.513;entryDx=0;entryDy=0;entryPerimeter=0;" parent="1" edge="1">
          <mxGeometry width="50" height="50" relative="1" as="geometry">
            <mxPoint x="142" y="240.1098591549296" as="sourcePoint" />
            <mxPoint x="269" y="241.03999999999996" as="targetPoint" />
          </mxGeometry>
        </mxCell>
        <mxCell id="2gdlmnFrw7Doysd-Zsr7-12" value="" style="endArrow=none;html=1;rounded=0;entryX=-0.03;entryY=0.513;entryDx=0;entryDy=0;entryPerimeter=0;" parent="1" edge="1">
          <mxGeometry width="50" height="50" relative="1" as="geometry">
            <mxPoint x="373" y="239.4998591549296" as="sourcePoint" />
            <mxPoint x="500" y="240.42999999999995" as="targetPoint" />
            <Array as="points" />
          </mxGeometry>
        </mxCell>
        <mxCell id="2gdlmnFrw7Doysd-Zsr7-13" value="" style="endArrow=none;html=1;rounded=0;entryX=-0.03;entryY=0.513;entryDx=0;entryDy=0;entryPerimeter=0;" parent="1" edge="1">
          <mxGeometry width="50" height="50" relative="1" as="geometry">
            <mxPoint x="570" y="239.4998591549296" as="sourcePoint" />
            <mxPoint x="697" y="240.42999999999995" as="targetPoint" />
          </mxGeometry>
        </mxCell>
        <mxCell id="2gdlmnFrw7Doysd-Zsr7-14" value="" style="endArrow=classic;html=1;rounded=0;" parent="1" edge="1">
          <mxGeometry width="50" height="50" relative="1" as="geometry">
            <mxPoint x="180" y="230" as="sourcePoint" />
            <mxPoint x="230" y="230" as="targetPoint" />
          </mxGeometry>
        </mxCell>
        <mxCell id="2gdlmnFrw7Doysd-Zsr7-15" value="" style="endArrow=classic;html=1;rounded=0;" parent="1" edge="1">
          <mxGeometry width="50" height="50" relative="1" as="geometry">
            <mxPoint x="400" y="230" as="sourcePoint" />
            <mxPoint x="450" y="230" as="targetPoint" />
          </mxGeometry>
        </mxCell>
        <mxCell id="2gdlmnFrw7Doysd-Zsr7-16" value="" style="endArrow=classic;html=1;rounded=0;" parent="1" edge="1">
          <mxGeometry width="50" height="50" relative="1" as="geometry">
            <mxPoint x="610" y="230" as="sourcePoint" />
            <mxPoint x="660" y="230" as="targetPoint" />
          </mxGeometry>
        </mxCell>
        <mxCell id="2gdlmnFrw7Doysd-Zsr7-17" value="" style="endArrow=classic;html=1;rounded=0;" parent="1" edge="1">
          <mxGeometry width="50" height="50" relative="1" as="geometry">
            <mxPoint x="230" y="260" as="sourcePoint" />
            <mxPoint x="180" y="260" as="targetPoint" />
          </mxGeometry>
        </mxCell>
        <mxCell id="2gdlmnFrw7Doysd-Zsr7-18" value="" style="endArrow=classic;html=1;rounded=0;" parent="1" edge="1">
          <mxGeometry width="50" height="50" relative="1" as="geometry">
            <mxPoint x="450" y="260" as="sourcePoint" />
            <mxPoint x="400" y="260" as="targetPoint" />
          </mxGeometry>
        </mxCell>
        <mxCell id="2gdlmnFrw7Doysd-Zsr7-19" value="" style="endArrow=classic;html=1;rounded=0;" parent="1" edge="1">
          <mxGeometry width="50" height="50" relative="1" as="geometry">
            <mxPoint x="660" y="260" as="sourcePoint" />
            <mxPoint x="610" y="260" as="targetPoint" />
          </mxGeometry>
        </mxCell>
        <mxCell id="2gdlmnFrw7Doysd-Zsr7-20" value="1.fill the form" style="text;html=1;strokeColor=none;fillColor=none;align=center;verticalAlign=middle;whiteSpace=wrap;rounded=0;" parent="1" vertex="1">
          <mxGeometry x="170" y="200" width="80" height="30" as="geometry" />
        </mxCell>
        <mxCell id="2gdlmnFrw7Doysd-Zsr7-21" value="2.verify" style="text;html=1;strokeColor=none;fillColor=none;align=center;verticalAlign=middle;whiteSpace=wrap;rounded=0;" parent="1" vertex="1">
          <mxGeometry x="380" y="200" width="80" height="30" as="geometry" />
        </mxCell>
        <mxCell id="2gdlmnFrw7Doysd-Zsr7-22" value="3.create" style="text;html=1;strokeColor=none;fillColor=none;align=center;verticalAlign=middle;whiteSpace=wrap;rounded=0;" parent="1" vertex="1">
          <mxGeometry x="590" y="200" width="80" height="30" as="geometry" />
        </mxCell>
        <mxCell id="2gdlmnFrw7Doysd-Zsr7-23" value="4. succeed" style="text;html=1;strokeColor=none;fillColor=none;align=center;verticalAlign=middle;whiteSpace=wrap;rounded=0;" parent="1" vertex="1">
          <mxGeometry x="600" y="260" width="80" height="30" as="geometry" />
        </mxCell>
        <mxCell id="2gdlmnFrw7Doysd-Zsr7-24" value="5. succeed" style="text;html=1;strokeColor=none;fillColor=none;align=center;verticalAlign=middle;whiteSpace=wrap;rounded=0;" parent="1" vertex="1">
          <mxGeometry x="390" y="270" width="80" height="30" as="geometry" />
        </mxCell>
        <mxCell id="2gdlmnFrw7Doysd-Zsr7-25" value="6. show succed message" style="text;html=1;strokeColor=none;fillColor=none;align=center;verticalAlign=middle;whiteSpace=wrap;rounded=0;" parent="1" vertex="1">
          <mxGeometry x="160" y="270" width="110" height="30" as="geometry" />
        </mxCell>
        <mxCell id="2gdlmnFrw7Doysd-Zsr7-26" value="&lt;table border=&quot;1&quot; width=&quot;100%&quot; height=&quot;100%&quot; cellpadding=&quot;4&quot; style=&quot;width:100%;height:100%;border-collapse:collapse;&quot;&gt;&lt;tbody&gt;&lt;tr&gt;&lt;th align=&quot;center&quot;&gt;Register window&lt;/th&gt;&lt;/tr&gt;&lt;tr&gt;&lt;td align=&quot;center&quot;&gt;init window&lt;br&gt;succeed window&lt;br&gt;show information window&lt;br&gt;information form&lt;/td&gt;&lt;/tr&gt;&lt;tr&gt;&lt;td align=&quot;center&quot;&gt;show window&lt;/td&gt;&lt;/tr&gt;&lt;/tbody&gt;&lt;/table&gt;" style="text;html=1;whiteSpace=wrap;strokeColor=none;fillColor=none;overflow=fill;" parent="1" vertex="1">
          <mxGeometry x="90" y="430" width="160" height="140" as="geometry" />
        </mxCell>
        <mxCell id="2gdlmnFrw7Doysd-Zsr7-27" value="&lt;table border=&quot;1&quot; width=&quot;100%&quot; height=&quot;100%&quot; cellpadding=&quot;4&quot; style=&quot;width:100%;height:100%;border-collapse:collapse;&quot;&gt;&lt;tbody&gt;&lt;tr&gt;&lt;th align=&quot;center&quot;&gt;verify information&lt;/th&gt;&lt;/tr&gt;&lt;tr&gt;&lt;td align=&quot;center&quot;&gt;&lt;br&gt;&lt;/td&gt;&lt;/tr&gt;&lt;tr&gt;&lt;td align=&quot;center&quot;&gt;verify information&lt;/td&gt;&lt;/tr&gt;&lt;/tbody&gt;&lt;/table&gt;" style="text;html=1;whiteSpace=wrap;strokeColor=none;fillColor=none;overflow=fill;" parent="1" vertex="1">
          <mxGeometry x="350" y="430" width="160" height="140" as="geometry" />
        </mxCell>
        <mxCell id="2gdlmnFrw7Doysd-Zsr7-28" value="&lt;table border=&quot;1&quot; width=&quot;100%&quot; height=&quot;100%&quot; cellpadding=&quot;4&quot; style=&quot;width:100%;height:100%;border-collapse:collapse;&quot;&gt;&lt;tbody&gt;&lt;tr&gt;&lt;th align=&quot;center&quot;&gt;Account&lt;/th&gt;&lt;/tr&gt;&lt;tr&gt;&lt;td align=&quot;center&quot;&gt;name&lt;br&gt;password&lt;br&gt;phone number&lt;/td&gt;&lt;/tr&gt;&lt;tr&gt;&lt;td align=&quot;center&quot;&gt;create account&lt;/td&gt;&lt;/tr&gt;&lt;/tbody&gt;&lt;/table&gt;" style="text;html=1;whiteSpace=wrap;strokeColor=none;fillColor=none;overflow=fill;" parent="1" vertex="1">
          <mxGeometry x="610" y="430" width="160" height="140" as="geometry" />
        </mxCell>
        <mxCell id="2gdlmnFrw7Doysd-Zsr7-30" value="" style="endArrow=none;html=1;rounded=0;entryX=0;entryY=0.5;entryDx=0;entryDy=0;exitX=1;exitY=0.5;exitDx=0;exitDy=0;" parent="1" source="2gdlmnFrw7Doysd-Zsr7-26" target="2gdlmnFrw7Doysd-Zsr7-27" edge="1">
          <mxGeometry width="50" height="50" relative="1" as="geometry">
            <mxPoint x="270" y="530" as="sourcePoint" />
            <mxPoint x="320" y="480" as="targetPoint" />
          </mxGeometry>
        </mxCell>
        <mxCell id="2gdlmnFrw7Doysd-Zsr7-31" value="" style="endArrow=none;html=1;rounded=0;entryX=0;entryY=0.5;entryDx=0;entryDy=0;exitX=1;exitY=0.5;exitDx=0;exitDy=0;" parent="1" edge="1">
          <mxGeometry width="50" height="50" relative="1" as="geometry">
            <mxPoint x="510" y="499.5" as="sourcePoint" />
            <mxPoint x="610" y="499.5" as="targetPoint" />
          </mxGeometry>
        </mxCell>
        <mxCell id="2gdlmnFrw7Doysd-Zsr7-32" value="1" style="text;html=1;align=center;verticalAlign=middle;resizable=0;points=[];autosize=1;strokeColor=none;fillColor=none;" parent="1" vertex="1">
          <mxGeometry x="245" y="475" width="30" height="30" as="geometry" />
        </mxCell>
        <mxCell id="2gdlmnFrw7Doysd-Zsr7-33" value="1" style="text;html=1;align=center;verticalAlign=middle;resizable=0;points=[];autosize=1;strokeColor=none;fillColor=none;" parent="1" vertex="1">
          <mxGeometry x="325" y="475" width="30" height="30" as="geometry" />
        </mxCell>
        <mxCell id="2gdlmnFrw7Doysd-Zsr7-34" value="1" style="text;html=1;align=center;verticalAlign=middle;resizable=0;points=[];autosize=1;strokeColor=none;fillColor=none;" parent="1" vertex="1">
          <mxGeometry x="505" y="475" width="30" height="30" as="geometry" />
        </mxCell>
        <mxCell id="2gdlmnFrw7Doysd-Zsr7-35" value="1" style="text;html=1;align=center;verticalAlign=middle;resizable=0;points=[];autosize=1;strokeColor=none;fillColor=none;" parent="1" vertex="1">
          <mxGeometry x="585" y="475" width="30" height="30" as="geometry" />
        </mxCell>
        <mxCell id="2gdlmnFrw7Doysd-Zsr7-36" value="&lt;table border=&quot;1&quot; width=&quot;100%&quot; height=&quot;100%&quot; cellpadding=&quot;4&quot; style=&quot;width:100%;height:100%;border-collapse:collapse;&quot;&gt;&lt;tbody&gt;&lt;tr&gt;&lt;th align=&quot;center&quot;&gt;Record&lt;/th&gt;&lt;/tr&gt;&lt;tr&gt;&lt;td align=&quot;center&quot;&gt;date&lt;br&gt;time of first meal&lt;br&gt;time of last meal&lt;br&gt;&lt;/td&gt;&lt;/tr&gt;&lt;tr&gt;&lt;td align=&quot;center&quot;&gt;&lt;/td&gt;&lt;/tr&gt;&lt;/tbody&gt;&lt;/table&gt;" style="text;html=1;whiteSpace=wrap;strokeColor=none;fillColor=none;overflow=fill;" parent="1" vertex="1">
          <mxGeometry x="850" y="430" width="160" height="140" as="geometry" />
        </mxCell>
        <mxCell id="2gdlmnFrw7Doysd-Zsr7-37" value="&lt;table border=&quot;1&quot; width=&quot;100%&quot; height=&quot;100%&quot; cellpadding=&quot;4&quot; style=&quot;width:100%;height:100%;border-collapse:collapse;&quot;&gt;&lt;tbody&gt;&lt;tr&gt;&lt;th align=&quot;center&quot;&gt;summary&lt;/th&gt;&lt;/tr&gt;&lt;tr&gt;&lt;td align=&quot;center&quot;&gt;chart&lt;br&gt;month&lt;br&gt;report&lt;/td&gt;&lt;/tr&gt;&lt;tr&gt;&lt;td align=&quot;center&quot;&gt;&lt;br&gt;&lt;/td&gt;&lt;/tr&gt;&lt;/tbody&gt;&lt;/table&gt;" style="text;html=1;whiteSpace=wrap;strokeColor=none;fillColor=none;overflow=fill;" parent="1" vertex="1">
          <mxGeometry x="610" y="640" width="160" height="140" as="geometry" />
        </mxCell>
        <mxCell id="2gdlmnFrw7Doysd-Zsr7-38" value="" style="endArrow=none;html=1;rounded=0;entryX=0.5;entryY=1;entryDx=0;entryDy=0;exitX=0.5;exitY=0;exitDx=0;exitDy=0;" parent="1" source="2gdlmnFrw7Doysd-Zsr7-37" target="2gdlmnFrw7Doysd-Zsr7-28" edge="1">
          <mxGeometry width="50" height="50" relative="1" as="geometry">
            <mxPoint x="670" y="630" as="sourcePoint" />
            <mxPoint x="720" y="580" as="targetPoint" />
          </mxGeometry>
        </mxCell>
        <mxCell id="2gdlmnFrw7Doysd-Zsr7-39" value="1" style="text;html=1;align=center;verticalAlign=middle;resizable=0;points=[];autosize=1;strokeColor=none;fillColor=none;" parent="1" vertex="1">
          <mxGeometry x="685" y="565" width="30" height="30" as="geometry" />
        </mxCell>
        <mxCell id="2gdlmnFrw7Doysd-Zsr7-40" value="*" style="text;html=1;align=center;verticalAlign=middle;resizable=0;points=[];autosize=1;strokeColor=none;fillColor=none;" parent="1" vertex="1">
          <mxGeometry x="685" y="615" width="30" height="30" as="geometry" />
        </mxCell>
        <mxCell id="2gdlmnFrw7Doysd-Zsr7-41" value="" style="endArrow=none;html=1;rounded=0;entryX=0;entryY=0.5;entryDx=0;entryDy=0;exitX=1;exitY=0.5;exitDx=0;exitDy=0;" parent="1" source="2gdlmnFrw7Doysd-Zsr7-28" target="2gdlmnFrw7Doysd-Zsr7-36" edge="1">
          <mxGeometry width="50" height="50" relative="1" as="geometry">
            <mxPoint x="780" y="530" as="sourcePoint" />
            <mxPoint x="830" y="480" as="targetPoint" />
          </mxGeometry>
        </mxCell>
        <mxCell id="2gdlmnFrw7Doysd-Zsr7-42" value="1" style="text;html=1;align=center;verticalAlign=middle;resizable=0;points=[];autosize=1;strokeColor=none;fillColor=none;" parent="1" vertex="1">
          <mxGeometry x="760" y="475" width="30" height="30" as="geometry" />
        </mxCell>
        <mxCell id="2gdlmnFrw7Doysd-Zsr7-43" value="*" style="text;html=1;align=center;verticalAlign=middle;resizable=0;points=[];autosize=1;strokeColor=none;fillColor=none;" parent="1" vertex="1">
          <mxGeometry x="825" y="475" width="30" height="30" as="geometry" />
        </mxCell>
        <mxCell id="2gdlmnFrw7Doysd-Zsr7-44" value="" style="endArrow=none;html=1;rounded=0;entryX=0.5;entryY=1;entryDx=0;entryDy=0;exitX=1;exitY=0.5;exitDx=0;exitDy=0;" parent="1" source="2gdlmnFrw7Doysd-Zsr7-37" target="2gdlmnFrw7Doysd-Zsr7-36" edge="1">
          <mxGeometry width="50" height="50" relative="1" as="geometry">
            <mxPoint x="870" y="710" as="sourcePoint" />
            <mxPoint x="920" y="660" as="targetPoint" />
          </mxGeometry>
        </mxCell>
        <mxCell id="2gdlmnFrw7Doysd-Zsr7-45" value="*" style="text;html=1;align=center;verticalAlign=middle;resizable=0;points=[];autosize=1;strokeColor=none;fillColor=none;" parent="1" vertex="1">
          <mxGeometry x="915" y="565" width="30" height="30" as="geometry" />
        </mxCell>
        <mxCell id="2gdlmnFrw7Doysd-Zsr7-46" value="1" style="text;html=1;align=center;verticalAlign=middle;resizable=0;points=[];autosize=1;strokeColor=none;fillColor=none;" parent="1" vertex="1">
          <mxGeometry x="765" y="695" width="30" height="30" as="geometry" />
        </mxCell>
        <mxCell id="2gdlmnFrw7Doysd-Zsr7-48" value="&lt;p style=&quot;margin: 0px; font-variant-numeric: normal; font-variant-east-asian: normal; font-stretch: normal; font-size: 10px; line-height: normal; font-family: &amp;quot;PingFang SC&amp;quot;; text-align: start;&quot; class=&quot;p1&quot;&gt;&amp;nbsp; &amp;nbsp; Register&amp;nbsp; &amp;nbsp; &amp;nbsp; &amp;nbsp; window&lt;/p&gt;" style="shape=umlBoundary;whiteSpace=wrap;html=1;" parent="1" vertex="1">
          <mxGeometry x="1450" y="190" width="100" height="80" as="geometry" />
        </mxCell>
        <mxCell id="2gdlmnFrw7Doysd-Zsr7-49" value="&lt;p style=&quot;margin: 0px; font-variant-numeric: normal; font-variant-east-asian: normal; font-stretch: normal; font-size: 10px; line-height: normal; font-family: &amp;quot;PingFang SC&amp;quot;; text-align: start;&quot; class=&quot;p1&quot;&gt;Account&lt;/p&gt;" style="ellipse;shape=umlEntity;whiteSpace=wrap;html=1;" parent="1" vertex="1">
          <mxGeometry x="1877" y="189" width="80" height="80" as="geometry" />
        </mxCell>
        <mxCell id="2gdlmnFrw7Doysd-Zsr7-50" value="&lt;p style=&quot;margin: 0px; font-variant-numeric: normal; font-variant-east-asian: normal; font-stretch: normal; font-size: 11px; line-height: normal; font-family: &amp;quot;Times New Roman&amp;quot;; text-align: start;&quot; class=&quot;p1&quot;&gt;&amp;nbsp; &amp;nbsp; &amp;nbsp; Verify&amp;nbsp; &amp;nbsp; &amp;nbsp; &amp;nbsp; &amp;nbsp;information&lt;/p&gt;" style="ellipse;shape=umlControl;whiteSpace=wrap;html=1;" parent="1" vertex="1">
          <mxGeometry x="1680" y="190" width="70" height="80" as="geometry" />
        </mxCell>
        <mxCell id="2gdlmnFrw7Doysd-Zsr7-51" value="Actor" style="shape=umlActor;verticalLabelPosition=bottom;verticalAlign=top;html=1;" parent="1" vertex="1">
          <mxGeometry x="1290" y="200" width="30" height="60" as="geometry" />
        </mxCell>
        <mxCell id="2gdlmnFrw7Doysd-Zsr7-52" value="" style="endArrow=none;html=1;rounded=0;entryX=-0.03;entryY=0.513;entryDx=0;entryDy=0;entryPerimeter=0;" parent="1" edge="1">
          <mxGeometry width="50" height="50" relative="1" as="geometry">
            <mxPoint x="1322" y="230.1098591549296" as="sourcePoint" />
            <mxPoint x="1449" y="231.03999999999996" as="targetPoint" />
          </mxGeometry>
        </mxCell>
        <mxCell id="2gdlmnFrw7Doysd-Zsr7-53" value="" style="endArrow=none;html=1;rounded=0;entryX=-0.03;entryY=0.513;entryDx=0;entryDy=0;entryPerimeter=0;" parent="1" edge="1">
          <mxGeometry width="50" height="50" relative="1" as="geometry">
            <mxPoint x="1553" y="229.4998591549296" as="sourcePoint" />
            <mxPoint x="1680" y="230.42999999999995" as="targetPoint" />
            <Array as="points" />
          </mxGeometry>
        </mxCell>
        <mxCell id="2gdlmnFrw7Doysd-Zsr7-54" value="" style="endArrow=none;html=1;rounded=0;entryX=-0.03;entryY=0.513;entryDx=0;entryDy=0;entryPerimeter=0;" parent="1" edge="1">
          <mxGeometry width="50" height="50" relative="1" as="geometry">
            <mxPoint x="1750" y="229.4998591549296" as="sourcePoint" />
            <mxPoint x="1877" y="230.42999999999995" as="targetPoint" />
          </mxGeometry>
        </mxCell>
        <mxCell id="2gdlmnFrw7Doysd-Zsr7-55" value="" style="endArrow=classic;html=1;rounded=0;" parent="1" edge="1">
          <mxGeometry width="50" height="50" relative="1" as="geometry">
            <mxPoint x="1360" y="220" as="sourcePoint" />
            <mxPoint x="1410" y="220" as="targetPoint" />
          </mxGeometry>
        </mxCell>
        <mxCell id="2gdlmnFrw7Doysd-Zsr7-56" value="" style="endArrow=classic;html=1;rounded=0;" parent="1" edge="1">
          <mxGeometry width="50" height="50" relative="1" as="geometry">
            <mxPoint x="1580" y="220" as="sourcePoint" />
            <mxPoint x="1630" y="220" as="targetPoint" />
          </mxGeometry>
        </mxCell>
        <mxCell id="2gdlmnFrw7Doysd-Zsr7-57" value="" style="endArrow=classic;html=1;rounded=0;" parent="1" edge="1">
          <mxGeometry width="50" height="50" relative="1" as="geometry">
            <mxPoint x="1790" y="220" as="sourcePoint" />
            <mxPoint x="1840" y="220" as="targetPoint" />
          </mxGeometry>
        </mxCell>
        <mxCell id="2gdlmnFrw7Doysd-Zsr7-58" value="" style="endArrow=classic;html=1;rounded=0;" parent="1" edge="1">
          <mxGeometry width="50" height="50" relative="1" as="geometry">
            <mxPoint x="1410" y="240" as="sourcePoint" />
            <mxPoint x="1360" y="240" as="targetPoint" />
          </mxGeometry>
        </mxCell>
        <mxCell id="2gdlmnFrw7Doysd-Zsr7-59" value="" style="endArrow=classic;html=1;rounded=0;" parent="1" edge="1">
          <mxGeometry width="50" height="50" relative="1" as="geometry">
            <mxPoint x="1630" y="240" as="sourcePoint" />
            <mxPoint x="1580" y="240" as="targetPoint" />
          </mxGeometry>
        </mxCell>
        <mxCell id="2gdlmnFrw7Doysd-Zsr7-60" value="" style="endArrow=classic;html=1;rounded=0;" parent="1" edge="1">
          <mxGeometry width="50" height="50" relative="1" as="geometry">
            <mxPoint x="1840" y="240" as="sourcePoint" />
            <mxPoint x="1790" y="240" as="targetPoint" />
          </mxGeometry>
        </mxCell>
        <mxCell id="2gdlmnFrw7Doysd-Zsr7-61" value="1.fill the form" style="text;html=1;strokeColor=none;fillColor=none;align=center;verticalAlign=middle;whiteSpace=wrap;rounded=0;" parent="1" vertex="1">
          <mxGeometry x="1350" y="190" width="80" height="30" as="geometry" />
        </mxCell>
        <mxCell id="2gdlmnFrw7Doysd-Zsr7-62" value="2.verify" style="text;html=1;strokeColor=none;fillColor=none;align=center;verticalAlign=middle;whiteSpace=wrap;rounded=0;" parent="1" vertex="1">
          <mxGeometry x="1560" y="190" width="80" height="30" as="geometry" />
        </mxCell>
        <mxCell id="2gdlmnFrw7Doysd-Zsr7-63" value="3.create account(un&lt;span style=&quot;font-family: &amp;quot;Times New Roman&amp;quot;; font-size: 11px; text-align: start; background-color: initial;&quot;&gt;available&lt;/span&gt;&lt;span style=&quot;background-color: initial;&quot;&gt;)&lt;/span&gt;" style="text;html=1;strokeColor=none;fillColor=none;align=center;verticalAlign=middle;whiteSpace=wrap;rounded=0;" parent="1" vertex="1">
          <mxGeometry x="1715" y="185" width="210" height="40" as="geometry" />
        </mxCell>
        <mxCell id="2gdlmnFrw7Doysd-Zsr7-64" value="4. succeed" style="text;html=1;strokeColor=none;fillColor=none;align=center;verticalAlign=middle;whiteSpace=wrap;rounded=0;" parent="1" vertex="1">
          <mxGeometry x="1780" y="240" width="80" height="30" as="geometry" />
        </mxCell>
        <mxCell id="2gdlmnFrw7Doysd-Zsr7-65" value="5. send email" style="text;html=1;strokeColor=none;fillColor=none;align=center;verticalAlign=middle;whiteSpace=wrap;rounded=0;" parent="1" vertex="1">
          <mxGeometry x="1570" y="240" width="80" height="30" as="geometry" />
        </mxCell>
        <mxCell id="2gdlmnFrw7Doysd-Zsr7-66" value="6. display &lt;br&gt;&quot;email has been sent&quot;" style="text;html=1;strokeColor=none;fillColor=none;align=center;verticalAlign=middle;whiteSpace=wrap;rounded=0;" parent="1" vertex="1">
          <mxGeometry x="1322.5" y="245" width="135" height="30" as="geometry" />
        </mxCell>
        <mxCell id="2gdlmnFrw7Doysd-Zsr7-68" value="" style="endArrow=classic;html=1;rounded=0;" parent="1" edge="1">
          <mxGeometry width="50" height="50" relative="1" as="geometry">
            <mxPoint x="1480" y="430" as="sourcePoint" />
            <mxPoint x="1530" y="430" as="targetPoint" />
          </mxGeometry>
        </mxCell>
        <mxCell id="2gdlmnFrw7Doysd-Zsr7-69" value="7.click active link" style="text;html=1;align=center;verticalAlign=middle;resizable=0;points=[];autosize=1;strokeColor=none;fillColor=none;" parent="1" vertex="1">
          <mxGeometry x="1445" y="405" width="110" height="30" as="geometry" />
        </mxCell>
        <mxCell id="2gdlmnFrw7Doysd-Zsr7-70" value="" style="endArrow=classic;html=1;rounded=0;" parent="1" edge="1">
          <mxGeometry width="50" height="50" relative="1" as="geometry">
            <mxPoint x="1720" y="360" as="sourcePoint" />
            <mxPoint x="1670" y="360" as="targetPoint" />
          </mxGeometry>
        </mxCell>
        <mxCell id="2gdlmnFrw7Doysd-Zsr7-71" value="8.Register is succeed" style="text;html=1;align=center;verticalAlign=middle;resizable=0;points=[];autosize=1;strokeColor=none;fillColor=none;" parent="1" vertex="1">
          <mxGeometry x="1630" y="360" width="140" height="30" as="geometry" />
        </mxCell>
        <mxCell id="2gdlmnFrw7Doysd-Zsr7-72" value="&lt;table border=&quot;1&quot; width=&quot;100%&quot; height=&quot;100%&quot; cellpadding=&quot;4&quot; style=&quot;width:100%;height:100%;border-collapse:collapse;&quot;&gt;&lt;tbody&gt;&lt;tr&gt;&lt;th align=&quot;center&quot;&gt;Register window&lt;/th&gt;&lt;/tr&gt;&lt;tr&gt;&lt;td align=&quot;center&quot;&gt;init window&lt;br&gt;succeed window&lt;br&gt;show information window&lt;br&gt;information form&lt;/td&gt;&lt;/tr&gt;&lt;tr&gt;&lt;td align=&quot;center&quot;&gt;show window&lt;/td&gt;&lt;/tr&gt;&lt;/tbody&gt;&lt;/table&gt;" style="text;html=1;whiteSpace=wrap;strokeColor=none;fillColor=none;overflow=fill;" parent="1" vertex="1">
          <mxGeometry x="60" y="900" width="160" height="140" as="geometry" />
        </mxCell>
        <mxCell id="2gdlmnFrw7Doysd-Zsr7-73" value="&lt;table border=&quot;1&quot; width=&quot;100%&quot; height=&quot;100%&quot; cellpadding=&quot;4&quot; style=&quot;width:100%;height:100%;border-collapse:collapse;&quot;&gt;&lt;tbody&gt;&lt;tr&gt;&lt;th align=&quot;center&quot;&gt;verify information&lt;/th&gt;&lt;/tr&gt;&lt;tr&gt;&lt;td align=&quot;center&quot;&gt;&lt;br&gt;&lt;/td&gt;&lt;/tr&gt;&lt;tr&gt;&lt;td align=&quot;center&quot;&gt;verify information&lt;br&gt;send email&lt;/td&gt;&lt;/tr&gt;&lt;/tbody&gt;&lt;/table&gt;" style="text;html=1;whiteSpace=wrap;strokeColor=none;fillColor=none;overflow=fill;" parent="1" vertex="1">
          <mxGeometry x="320" y="900" width="160" height="140" as="geometry" />
        </mxCell>
        <mxCell id="2gdlmnFrw7Doysd-Zsr7-74" value="&lt;table border=&quot;1&quot; width=&quot;100%&quot; height=&quot;100%&quot; cellpadding=&quot;4&quot; style=&quot;width:100%;height:100%;border-collapse:collapse;&quot;&gt;&lt;tbody&gt;&lt;tr&gt;&lt;th align=&quot;center&quot;&gt;Account&lt;/th&gt;&lt;/tr&gt;&lt;tr&gt;&lt;td align=&quot;center&quot;&gt;name&lt;br&gt;password&lt;br&gt;phone number&lt;br&gt;&lt;p style=&quot;margin: 0px; font-variant-numeric: normal; font-variant-east-asian: normal; font-stretch: normal; font-size: 10px; line-height: normal; font-family: &amp;quot;PingFang SC&amp;quot;; text-align: start;&quot; class=&quot;p1&quot;&gt;&amp;nbsp; &amp;nbsp; &amp;nbsp; &amp;nbsp; &amp;nbsp; &amp;nbsp;Is available&lt;/p&gt;&lt;/td&gt;&lt;/tr&gt;&lt;tr&gt;&lt;td align=&quot;center&quot;&gt;create account&lt;br&gt;set available&lt;/td&gt;&lt;/tr&gt;&lt;/tbody&gt;&lt;/table&gt;" style="text;html=1;whiteSpace=wrap;strokeColor=none;fillColor=none;overflow=fill;" parent="1" vertex="1">
          <mxGeometry x="580" y="900" width="160" height="140" as="geometry" />
        </mxCell>
        <mxCell id="2gdlmnFrw7Doysd-Zsr7-75" value="" style="endArrow=none;html=1;rounded=0;entryX=0;entryY=0.5;entryDx=0;entryDy=0;exitX=1;exitY=0.5;exitDx=0;exitDy=0;" parent="1" source="2gdlmnFrw7Doysd-Zsr7-72" target="2gdlmnFrw7Doysd-Zsr7-73" edge="1">
          <mxGeometry width="50" height="50" relative="1" as="geometry">
            <mxPoint x="240" y="1000" as="sourcePoint" />
            <mxPoint x="290" y="950" as="targetPoint" />
          </mxGeometry>
        </mxCell>
        <mxCell id="2gdlmnFrw7Doysd-Zsr7-76" value="" style="endArrow=none;html=1;rounded=0;entryX=0;entryY=0.5;entryDx=0;entryDy=0;exitX=1;exitY=0.5;exitDx=0;exitDy=0;" parent="1" edge="1">
          <mxGeometry width="50" height="50" relative="1" as="geometry">
            <mxPoint x="480" y="969.5" as="sourcePoint" />
            <mxPoint x="580" y="969.5" as="targetPoint" />
          </mxGeometry>
        </mxCell>
        <mxCell id="2gdlmnFrw7Doysd-Zsr7-77" value="1" style="text;html=1;align=center;verticalAlign=middle;resizable=0;points=[];autosize=1;strokeColor=none;fillColor=none;" parent="1" vertex="1">
          <mxGeometry x="215" y="945" width="30" height="30" as="geometry" />
        </mxCell>
        <mxCell id="2gdlmnFrw7Doysd-Zsr7-78" value="1" style="text;html=1;align=center;verticalAlign=middle;resizable=0;points=[];autosize=1;strokeColor=none;fillColor=none;" parent="1" vertex="1">
          <mxGeometry x="295" y="945" width="30" height="30" as="geometry" />
        </mxCell>
        <mxCell id="2gdlmnFrw7Doysd-Zsr7-79" value="1" style="text;html=1;align=center;verticalAlign=middle;resizable=0;points=[];autosize=1;strokeColor=none;fillColor=none;" parent="1" vertex="1">
          <mxGeometry x="475" y="945" width="30" height="30" as="geometry" />
        </mxCell>
        <mxCell id="2gdlmnFrw7Doysd-Zsr7-80" value="1" style="text;html=1;align=center;verticalAlign=middle;resizable=0;points=[];autosize=1;strokeColor=none;fillColor=none;" parent="1" vertex="1">
          <mxGeometry x="555" y="945" width="30" height="30" as="geometry" />
        </mxCell>
        <mxCell id="2gdlmnFrw7Doysd-Zsr7-81" value="&lt;table border=&quot;1&quot; width=&quot;100%&quot; height=&quot;100%&quot; cellpadding=&quot;4&quot; style=&quot;width:100%;height:100%;border-collapse:collapse;&quot;&gt;&lt;tbody&gt;&lt;tr&gt;&lt;th align=&quot;center&quot;&gt;Record&lt;/th&gt;&lt;/tr&gt;&lt;tr&gt;&lt;td align=&quot;center&quot;&gt;date&lt;br&gt;time of first meal&lt;br&gt;time of last meal&lt;br&gt;&lt;/td&gt;&lt;/tr&gt;&lt;tr&gt;&lt;td align=&quot;center&quot;&gt;&lt;/td&gt;&lt;/tr&gt;&lt;/tbody&gt;&lt;/table&gt;" style="text;html=1;whiteSpace=wrap;strokeColor=none;fillColor=none;overflow=fill;" parent="1" vertex="1">
          <mxGeometry x="820" y="900" width="160" height="140" as="geometry" />
        </mxCell>
        <mxCell id="2gdlmnFrw7Doysd-Zsr7-82" value="&lt;table border=&quot;1&quot; width=&quot;100%&quot; height=&quot;100%&quot; cellpadding=&quot;4&quot; style=&quot;width:100%;height:100%;border-collapse:collapse;&quot;&gt;&lt;tbody&gt;&lt;tr&gt;&lt;th align=&quot;center&quot;&gt;summary&lt;/th&gt;&lt;/tr&gt;&lt;tr&gt;&lt;td align=&quot;center&quot;&gt;chart&lt;br&gt;month&lt;br&gt;report&lt;/td&gt;&lt;/tr&gt;&lt;tr&gt;&lt;td align=&quot;center&quot;&gt;&lt;br&gt;&lt;/td&gt;&lt;/tr&gt;&lt;/tbody&gt;&lt;/table&gt;" style="text;html=1;whiteSpace=wrap;strokeColor=none;fillColor=none;overflow=fill;" parent="1" vertex="1">
          <mxGeometry x="580" y="1110" width="160" height="140" as="geometry" />
        </mxCell>
        <mxCell id="2gdlmnFrw7Doysd-Zsr7-83" value="" style="endArrow=none;html=1;rounded=0;entryX=0.5;entryY=1;entryDx=0;entryDy=0;exitX=0.5;exitY=0;exitDx=0;exitDy=0;" parent="1" source="2gdlmnFrw7Doysd-Zsr7-82" target="2gdlmnFrw7Doysd-Zsr7-74" edge="1">
          <mxGeometry width="50" height="50" relative="1" as="geometry">
            <mxPoint x="640" y="1100" as="sourcePoint" />
            <mxPoint x="690" y="1050" as="targetPoint" />
          </mxGeometry>
        </mxCell>
        <mxCell id="2gdlmnFrw7Doysd-Zsr7-84" value="1" style="text;html=1;align=center;verticalAlign=middle;resizable=0;points=[];autosize=1;strokeColor=none;fillColor=none;" parent="1" vertex="1">
          <mxGeometry x="655" y="1035" width="30" height="30" as="geometry" />
        </mxCell>
        <mxCell id="2gdlmnFrw7Doysd-Zsr7-85" value="*" style="text;html=1;align=center;verticalAlign=middle;resizable=0;points=[];autosize=1;strokeColor=none;fillColor=none;" parent="1" vertex="1">
          <mxGeometry x="655" y="1085" width="30" height="30" as="geometry" />
        </mxCell>
        <mxCell id="2gdlmnFrw7Doysd-Zsr7-86" value="" style="endArrow=none;html=1;rounded=0;entryX=0;entryY=0.5;entryDx=0;entryDy=0;exitX=1;exitY=0.5;exitDx=0;exitDy=0;" parent="1" source="2gdlmnFrw7Doysd-Zsr7-74" target="2gdlmnFrw7Doysd-Zsr7-81" edge="1">
          <mxGeometry width="50" height="50" relative="1" as="geometry">
            <mxPoint x="750" y="1000" as="sourcePoint" />
            <mxPoint x="800" y="950" as="targetPoint" />
          </mxGeometry>
        </mxCell>
        <mxCell id="2gdlmnFrw7Doysd-Zsr7-87" value="1" style="text;html=1;align=center;verticalAlign=middle;resizable=0;points=[];autosize=1;strokeColor=none;fillColor=none;" parent="1" vertex="1">
          <mxGeometry x="730" y="945" width="30" height="30" as="geometry" />
        </mxCell>
        <mxCell id="2gdlmnFrw7Doysd-Zsr7-88" value="*" style="text;html=1;align=center;verticalAlign=middle;resizable=0;points=[];autosize=1;strokeColor=none;fillColor=none;" parent="1" vertex="1">
          <mxGeometry x="795" y="945" width="30" height="30" as="geometry" />
        </mxCell>
        <mxCell id="2gdlmnFrw7Doysd-Zsr7-89" value="" style="endArrow=none;html=1;rounded=0;entryX=0.5;entryY=1;entryDx=0;entryDy=0;exitX=1;exitY=0.5;exitDx=0;exitDy=0;" parent="1" source="2gdlmnFrw7Doysd-Zsr7-82" target="2gdlmnFrw7Doysd-Zsr7-81" edge="1">
          <mxGeometry width="50" height="50" relative="1" as="geometry">
            <mxPoint x="840" y="1180" as="sourcePoint" />
            <mxPoint x="890" y="1130" as="targetPoint" />
          </mxGeometry>
        </mxCell>
        <mxCell id="2gdlmnFrw7Doysd-Zsr7-90" value="*" style="text;html=1;align=center;verticalAlign=middle;resizable=0;points=[];autosize=1;strokeColor=none;fillColor=none;" parent="1" vertex="1">
          <mxGeometry x="885" y="1035" width="30" height="30" as="geometry" />
        </mxCell>
        <mxCell id="2gdlmnFrw7Doysd-Zsr7-91" value="1" style="text;html=1;align=center;verticalAlign=middle;resizable=0;points=[];autosize=1;strokeColor=none;fillColor=none;" parent="1" vertex="1">
          <mxGeometry x="735" y="1165" width="30" height="30" as="geometry" />
        </mxCell>
        <mxCell id="6W-oO4c5q3gP22HyZoNm-1" value="" style="endArrow=none;html=1;rounded=0;exitX=0.5;exitY=1;exitDx=0;exitDy=0;" edge="1" parent="1">
          <mxGeometry width="50" height="50" relative="1" as="geometry">
            <mxPoint x="1917" y="269" as="sourcePoint" />
            <mxPoint x="1307" y="281" as="targetPoint" />
            <Array as="points">
              <mxPoint x="1917" y="449" />
              <mxPoint x="1307" y="449" />
            </Array>
          </mxGeometry>
        </mxCell>
        <mxCell id="6W-oO4c5q3gP22HyZoNm-3" value="" style="endArrow=none;html=1;rounded=0;entryX=0.58;entryY=1.019;entryDx=0;entryDy=0;entryPerimeter=0;edgeStyle=orthogonalEdgeStyle;exitX=0.5;exitY=1;exitDx=0;exitDy=0;" edge="1" parent="1" source="2gdlmnFrw7Doysd-Zsr7-49" target="2gdlmnFrw7Doysd-Zsr7-48">
          <mxGeometry width="50" height="50" relative="1" as="geometry">
            <mxPoint x="1900" y="380" as="sourcePoint" />
            <mxPoint x="1570" y="300" as="targetPoint" />
            <Array as="points">
              <mxPoint x="1917" y="390" />
              <mxPoint x="1508" y="390" />
            </Array>
          </mxGeometry>
        </mxCell>
        <mxCell id="6W-oO4c5q3gP22HyZoNm-5" value="9. display&lt;br&gt;“&lt;span style=&quot;font-family: TimesNewRomanPSMT; font-size: 11pt; background-color: rgb(255, 255, 255);&quot;&gt;Register is succeed&lt;/span&gt;”" style="text;html=1;align=center;verticalAlign=middle;resizable=0;points=[];autosize=1;strokeColor=none;fillColor=none;" vertex="1" parent="1">
          <mxGeometry x="1320" y="269" width="140" height="50" as="geometry" />
        </mxCell>
      </root>
    </mxGraphModel>
  </diagram>
</mxfile>
